<svg width="16" height="16" viewBox="0 0 16 16" fill="none" xmlns="http://www.w3.org/2000/svg">
<path d="M13 1.5H4.5C3.96957 1.5 3.46086 1.71071 3.08579 2.08579C2.71071 2.46086 2.5 2.96957 2.5 3.5V14C2.5 14.1326 2.55268 14.2598 2.64645 14.3536C2.74021 14.4473 2.86739 14.5 3 14.5H12C12.1326 14.5 12.2598 14.4473 12.3536 14.3536C12.4473 14.2598 12.5 14.1326 12.5 14C12.5 13.8674 12.4473 13.7402 12.3536 13.6464C12.2598 13.5527 12.1326 13.5 12 13.5H3.5C3.5 13.2348 3.60536 12.9804 3.79289 12.7929C3.98043 12.6054 4.23478 12.5 4.5 12.5H13C13.1326 12.5 13.2598 12.4473 13.3536 12.3536C13.4473 12.2598 13.5 12.1326 13.5 12V2C13.5 1.86739 13.4473 1.74021 13.3536 1.64645C13.2598 1.55268 13.1326 1.5 13 1.5ZM7.5 2.5H10.5V7L9.29937 6.1C9.21283 6.03509 9.10756 6 8.99938 6C8.89119 6 8.78592 6.03509 8.69938 6.1L7.5 7V2.5ZM12.5 11.5H4.5C4.14884 11.4995 3.80382 11.592 3.5 11.7681V3.5C3.5 3.23478 3.60536 2.98043 3.79289 2.79289C3.98043 2.60536 4.23478 2.5 4.5 2.5H6.5V8C6.5 8.09286 6.52586 8.18388 6.57467 8.26287C6.62349 8.34185 6.69334 8.40569 6.77639 8.44721C6.85945 8.48874 6.95242 8.50632 7.0449 8.49798C7.13738 8.48964 7.22572 8.45571 7.3 8.4L9 7.125L10.7006 8.4C10.787 8.46478 10.892 8.49987 11 8.5C11.1326 8.5 11.2598 8.44732 11.3536 8.35355C11.4473 8.25979 11.5 8.13261 11.5 8V2.5H12.5V11.5Z" fill="#87868D"/>
</svg>
