<svg width="18" height="18" viewBox="0 0 18 18" fill="none" xmlns="http://www.w3.org/2000/svg">
<path d="M15.9834 5.15884L12.8412 2.01728C12.7367 1.91279 12.6127 1.8299 12.4762 1.77334C12.3397 1.71679 12.1933 1.68768 12.0456 1.68768C11.8978 1.68768 11.7515 1.71679 11.615 1.77334C11.4785 1.8299 11.3545 1.91279 11.25 2.01728L2.57977 10.6875C2.47485 10.7916 2.39167 10.9155 2.33506 11.052C2.27844 11.1885 2.24953 11.335 2.25001 11.4827V14.625C2.25001 14.9234 2.36853 15.2095 2.57951 15.4205C2.79049 15.6315 3.07664 15.75 3.37501 15.75H15.1875C15.3367 15.75 15.4798 15.6908 15.5853 15.5853C15.6907 15.4798 15.75 15.3367 15.75 15.1875C15.75 15.0383 15.6907 14.8953 15.5853 14.7898C15.4798 14.6843 15.3367 14.625 15.1875 14.625H8.10844L15.9834 6.75001C16.0879 6.64554 16.1708 6.52151 16.2274 6.385C16.2839 6.2485 16.313 6.10219 16.313 5.95443C16.313 5.80667 16.2839 5.66036 16.2274 5.52385C16.1708 5.38734 16.0879 5.26331 15.9834 5.15884ZM6.51727 14.625H3.37501V11.4827L9.56251 5.29525L12.7048 8.43751L6.51727 14.625ZM13.5 7.64228L10.3584 4.50001L12.0459 2.81251L15.1875 5.95478L13.5 7.64228Z" fill="#87868D"/>
</svg>
