<svg width="17" height="16" viewBox="0 0 17 16" fill="none" xmlns="http://www.w3.org/2000/svg">
<path d="M15.2823 6.07872C15.2198 5.88655 15.1018 5.71718 14.9432 5.59195C14.7846 5.46671 14.5925 5.39122 14.391 5.37497L10.7035 5.07747L9.27979 1.63435C9.20279 1.44674 9.07174 1.28625 8.90331 1.17331C8.73487 1.06037 8.53665 1.00006 8.33385 1.00006C8.13105 1.00006 7.93283 1.06037 7.76439 1.17331C7.59596 1.28625 7.46491 1.44674 7.38791 1.63435L5.96541 5.07685L2.27604 5.37497C2.07427 5.39204 1.88203 5.46827 1.7234 5.5941C1.56476 5.71994 1.44679 5.8898 1.38426 6.08238C1.32174 6.27497 1.31743 6.48173 1.37189 6.67675C1.42635 6.87178 1.53715 7.04639 1.69041 7.17873L4.50291 9.6056L3.64604 13.2344C3.59812 13.4315 3.60985 13.6384 3.67975 13.8289C3.74965 14.0193 3.87456 14.1847 4.03864 14.3041C4.20271 14.4234 4.39854 14.4913 4.60127 14.4992C4.804 14.507 5.00449 14.4544 5.17729 14.3481L8.33354 12.4056L11.4917 14.3481C11.6645 14.4532 11.8646 14.5047 12.0667 14.4963C12.2688 14.4879 12.4639 14.4198 12.6274 14.3008C12.7909 14.1817 12.9156 14.0169 12.9856 13.8271C13.0556 13.6374 13.068 13.4311 13.021 13.2344L12.161 9.60497L14.9735 7.1781C15.128 7.04599 15.2399 6.871 15.2948 6.67529C15.3498 6.47958 15.3454 6.27196 15.2823 6.07872ZM14.3235 6.4206L11.2798 9.0456C11.2104 9.10543 11.1587 9.18318 11.1305 9.27037C11.1023 9.35756 11.0986 9.45082 11.1198 9.53998L12.0498 13.465C12.0522 13.4704 12.0524 13.4765 12.0505 13.4821C12.0485 13.4877 12.0444 13.4923 12.0392 13.495C12.0279 13.5037 12.0248 13.5019 12.0154 13.495L8.59541 11.3919C8.51665 11.3434 8.426 11.3178 8.33354 11.3178C8.24108 11.3178 8.15043 11.3434 8.07166 11.3919L4.65166 13.4962C4.64229 13.5019 4.63979 13.5037 4.62791 13.4962C4.62264 13.4935 4.6186 13.4889 4.61662 13.4833C4.61464 13.4778 4.61488 13.4716 4.61729 13.4662L5.54729 9.54123C5.56848 9.45207 5.56477 9.35881 5.53655 9.27162C5.50834 9.18443 5.4567 9.10668 5.38729 9.04685L2.34354 6.42185C2.33604 6.4156 2.32916 6.40998 2.33541 6.3906C2.34166 6.37122 2.34666 6.37372 2.35604 6.37247L6.35104 6.04997C6.44267 6.04212 6.53036 6.00914 6.60446 5.95466C6.67856 5.90019 6.7362 5.82634 6.77104 5.74122L8.30979 2.0156C8.31479 2.00497 8.31666 1.99997 8.33166 1.99997C8.34666 1.99997 8.34854 2.00497 8.35354 2.0156L9.89604 5.74122C9.93121 5.82637 9.98921 5.90014 10.0637 5.95441C10.1381 6.00867 10.2261 6.04131 10.3179 6.04872L14.3129 6.37122C14.3223 6.37122 14.3279 6.37122 14.3335 6.38935C14.3392 6.40747 14.3335 6.41435 14.3235 6.4206Z" fill="#87868D"/>
</svg>
